<svg width="128" height="36" fill="none" xmlns="http://www.w3.org/2000/svg"><g clip-path="url(#a)" fill="#0A0A0A"><path d="M65.068 5.6c-2.292 1.563-4.447 3.423-6.465 5.578a182.15 182.15 0 0 0-5.914 6.467c-1.1 1.24-2.178 2.506-3.233 3.799l-3.164 3.88a38.72 38.72 0 0 1-1.788 2.263c-.596.7-1.192 1.455-1.788 2.264.963-.27 1.903-.593 2.82-.97a69.35 69.35 0 0 1 2.613-.97 22.58 22.58 0 0 0 2.201-.647 18.91 18.91 0 0 1 2.339-.647 8.735 8.735 0 0 1 2.338-.323c.825-.054 1.582.08 2.27.404.87.377 1.398 1.024 1.581 1.94a2.682 2.682 0 0 1-.137 1.697c.78-.269 1.536-.565 2.27-.889.779-.323 1.512-.62 2.2-.889l3.99-1.455c1.33-.539 2.681-.97 4.057-1.293.367-.108.803-.162 1.307-.162.55-.054 1.032 0 1.444.162.413.162.71.458.894.889.23.377.253.943.069 1.697-.138.486-.412.89-.825 1.213-.413.27-.894.485-1.445.647-.55.161-1.1.296-1.65.404-.55.054-.986.135-1.307.242a121.433 121.433 0 0 0-4.608 1.698l-4.54 1.616c-.779.27-1.627.54-2.544.809-.917.323-1.788.377-2.614.161-.32-.053-.664-.215-1.031-.485-.78-.7-1.146-1.347-1.1-1.94.045-.592.252-1.185.618-1.778h-.825c-1.65.323-3.301.728-4.952 1.213-1.33.43-2.682.916-4.058 1.455-1.33.538-2.705.889-4.126 1.05-.505.054-1.009-.053-1.513-.323-.505-.215-.871-.674-1.1-1.374-.184-.593-.184-1.159 0-1.698a7.825 7.825 0 0 1 .756-1.697 42.117 42.117 0 0 1-3.783 2.344 60.248 60.248 0 0 1-2.613 1.293 194.721 194.721 0 0 1-3.852 1.86c-1.375.646-2.75.943-4.126.889-1.514-.108-2.43-.593-2.751-1.455-.321-.862-.253-1.94.206-3.234.413-1.347 1.077-2.775 1.994-4.284a56.83 56.83 0 0 1 2.889-4.445 78.745 78.745 0 0 1 2.889-3.638 139.32 139.32 0 0 1 1.719-2.102l.963-1.131h-3.92c-1.284 0-2.59.027-3.92.08-2.66.108-5.296.27-7.91.485-2.66.162-5.319.405-7.978.728-.963.162-1.903.323-2.82.485a18.24 18.24 0 0 0-2.888.566 5.64 5.64 0 0 0-.757.242c-.275.108-.527.108-.757 0C.19 18.076-.04 17.7.006 17.16c0-.593.229-.97.687-1.132a78.146 78.146 0 0 1 16.988-3.152 269.515 269.515 0 0 1 17.263-.89 243.908 243.908 0 0 1 3.576-3.799 276.922 276.922 0 0 1 3.645-3.718 47.931 47.931 0 0 0 2.064-2.425c.825-1.024 1.65-1.67 2.476-1.94.458-.162.848-.135 1.17.08.366.162.641.459.824.89.184.377.253.808.207 1.293-.046.485-.23.916-.55 1.294a361.227 361.227 0 0 0-4.196 4.203 105.5 105.5 0 0 0-4.058 4.203c.688 0 1.33.108 1.926.324.55.161 1.032.43 1.444.808.46.377.78.943.963 1.697.138.647.07 1.213-.206 1.698-.275.431-.62.754-1.032.97a2.152 2.152 0 0 1-1.306.08c-.413-.161-.734-.511-.963-1.05-.596-.27-1.284-.458-2.064-.566a10.864 10.864 0 0 0-2.2-.242l-.688.727a651.436 651.436 0 0 0-5.984 6.79c-2.063 2.425-3.69 5.039-4.883 7.84a32.453 32.453 0 0 0 4.952-1.616c1.697-.7 3.37-1.482 5.02-2.344a89.924 89.924 0 0 0 4.884-2.748 56.56 56.56 0 0 0 4.47-3.153 208.866 208.866 0 0 1 5.296-6.143 151.72 151.72 0 0 1 5.571-5.901 114.989 114.989 0 0 1 3.508-3.476 50.891 50.891 0 0 1 3.645-3.152c.504-.431 1.054-.7 1.65-.809.642-.161 1.17.135 1.582.89.23.485.275 1.023.138 1.616-.092.54-.344.97-.757 1.294Z"/><path d="M105.297 29.931a16.503 16.503 0 0 0-3.164.647c-1.009.27-2.04.539-3.095.808-2.751.755-5.48 1.482-8.184 2.183a70.11 70.11 0 0 1-8.253 1.455c-.734.108-1.514.188-2.34.242-.778.054-1.58.027-2.406-.08a8.481 8.481 0 0 1-2.27-.647 5.505 5.505 0 0 1-1.994-1.294 5.096 5.096 0 0 1-1.17-1.697 5.28 5.28 0 0 1-.55-2.02 4.973 4.973 0 0 1 .138-2.022c.183-.7.527-1.32 1.031-1.859.322-.377.826-.673 1.514-.889.733-.27 1.536-.458 2.407-.566a14.14 14.14 0 0 1 2.613-.08c.871.053 1.628.242 2.27.565.642.324 1.077.782 1.307 1.374.275.54.252 1.24-.069 2.102-.275.647-.688 1.105-1.238 1.374-.55.27-1.17.458-1.857.566-.688.054-1.399.054-2.132 0a41.507 41.507 0 0 1-1.926-.323c.183.215.55.404 1.1.566.55.107 1.124.188 1.72.242.642.054 1.215.08 1.72.08H81.5a46.827 46.827 0 0 0 6.671-1.13 248.44 248.44 0 0 0 6.672-1.698c1.605-.431 3.186-.862 4.745-1.294a30.801 30.801 0 0 1 4.814-1.05c.688-.054 1.262.134 1.72.565.458.432.756.943.894 1.536a2 2 0 0 1-.206 1.536c-.23.485-.734.755-1.513.808Z"/><path d="M126.055 29.931c-2.339.054-4.723.135-7.153.243a23 23 0 0 1-7.153-.97c-.183 0-.367-.054-.55-.162a10.642 10.642 0 0 1-1.238 2.667 10.172 10.172 0 0 1-1.719 2.102 6.027 6.027 0 0 1-2.132 1.294 3.427 3.427 0 0 1-2.201.08c-.688-.215-1.193-.62-1.513-1.212-.367-.593-.573-1.267-.619-2.021a6.398 6.398 0 0 1 .275-2.263 6.9 6.9 0 0 1 .825-2.021 5.642 5.642 0 0 1 2.27-1.94c.917-.431 1.834-.485 2.751-.162.091-.754.458-1.347 1.1-1.778.642-.431 1.33-.377 2.063.162a8.793 8.793 0 0 0 2.201 1.131c.826.216 1.674.35 2.545.404.871.054 1.719.081 2.545.081.871-.054 1.696-.08 2.476-.08.917 0 1.902-.055 2.957-.162 1.055-.162 2.017-.081 2.889.242.504.216.848.566 1.031 1.051.229.485.298.97.207 1.455a2.28 2.28 0 0 1-.551 1.293c-.32.378-.756.566-1.306.566Zm-20.564 1.051c.137-.162.412-.242.825-.242v-.728a4.237 4.237 0 0 1-.413.404c-.183.108-.321.297-.412.566Z"/></g><defs><clipPath id="a"><path fill="#fff" d="M0 0h128v36H0z"/></clipPath></defs></svg>